<svg width="612" height="520" xmlns="http://www.w3.org/2000/svg" xmlns:xlink="http://www.w3.org/1999/xlink">
 <g>
  <title>Layer 1</title>
  <g id="svg_5">
   <path fill="#FFFFFF" id="svg_6" d="m578.765503,5.487988v-0.895h-2.995972h-539.840019h-2.995998v0.895c-17.662002,1.214001 -30.839002,15.265999 -32.934002,32.320999v3.001999v355.723988c0,6.89801 1.795,12.712036 4.791,17.949036c6.893,12.136963 17.067999,18.268982 31.14,18.268982h197.011993v49.695007h-37.424988c-9.281006,0 -16.46701,7.217957 -16.46701,16.47998c0,9.262024 7.186005,16.479004 16.46701,16.479004h220.665985c9.281006,0 16.768005,-7.217987 16.768005,-16.479004c0,-9.263 -7.485992,-16.47998 -16.768005,-16.47998h-37.424988v-49.695007h197.011017c14.078003,0 24.342957,-6.132019 31.139954,-18.268982c3.085022,-5.493042 5.091003,-11.369995 5.091003,-17.949036v-355.722988v-3.001999c-2.095947,-17.056 -16.167969,-31.107998 -33.234985,-32.321999zm0,35.323997v355.723995c0,2.108032 -0.89502,3.001984 -2.995972,3.001984h-539.840019c-2.095001,0 -2.995998,-0.893951 -2.995998,-3.001984v-355.723995v-3.001999h545.831013v3.001999l0.000977,0z"/>
  </g>
  <g id="svg_7"/>
  <g id="svg_8"/>
  <g id="svg_9"/>
  <g id="svg_10"/>
  <g id="svg_11"/>
  <g id="svg_12"/>
  <g id="svg_13"/>
  <g id="svg_14"/>
  <g id="svg_15"/>
  <g id="svg_16"/>
  <g id="svg_17"/>
  <g id="svg_18"/>
  <g id="svg_19"/>
  <g id="svg_20"/>
  <g id="svg_21"/>
  <use x="422.266072" y="437.396456" transform="matrix(0.8158238778804616,0,0,0.5518547500146197,-288.1351301800387,-124.86156790618767) " id="svg_23" xlink:href="#svg_22"/>
 </g>
 <defs>
  <svg viewBox="0 0 493.447 493.447" y="0px" x="0px" id="svg_22" xmlns:xlink="http://www.w3.org/1999/xlink">
   <g>
    <g>
     <path fill="#FFFFFF" d="m190.561005,299.602997v45.846008l-110.637001,-0.016998v148.014984h333.598v-118.079987l-110.399994,0.009003v-75.763h0.013977m-143.426987,153.131989h-50.002998l0,0v-9.988007l9.117996,-8.231995c15.388008,-13.785004 22.879997,-21.707001 23.097008,-29.937988c0,-5.742004 -3.46701,-10.300995 -11.598007,-10.300995c-6.071999,0 -11.393997,3.046997 -15.080002,5.862l-4.670998,-11.833008c5.322998,-4.022003 13.561005,-7.274017 23.111,-7.274017c15.945999,0 24.734009,9.327026 24.734009,22.141022c0,11.817993 -8.571014,21.259003 -18.783005,30.372986l-6.494003,5.423004v0.222015h26.574997v13.552002h-0.007004v-0.007019h0.001007l0,0zm193.880997,-12.630005h-6.721008v-11.832977h6.39502c5.528992,-0.101013 12.585999,-2.174011 12.585999,-8.127014c0,-4.208008 -3.472992,-7.36499 -10.421997,-7.36499c-5.75,0 -11.824005,2.47998 -14.740021,4.222992l-3.371002,-11.937988c4.223022,-2.713013 12.689026,-5.314026 21.813019,-5.314026c15.070007,0 23.423981,7.929016 23.423981,17.574005c0,7.475006 -4.222992,13.352997 -12.909973,16.365997v0.222015c8.470978,1.535004 15.317993,7.929993 15.317993,17.119995c-0.015991,12.492004 -10.96701,21.612 -28.88501,21.612c-9.10199,0 -16.811005,-2.391998 -20.915985,-4.996002l3.354004,-12.363007c2.938995,1.52002 9.659973,4.337006 16.384979,4.337006c8.574005,0 12.89502,-4.131989 12.89502,-9.434998c-0.009003,-6.940002 -6.951019,-10.083008 -14.205017,-10.083008zm-101.143997,-46.246979l0,0h-15.966003v-55.894012h-0.203995l-13.462997,6.410004l-2.712006,-12.389008l18.658005,-8.665985h13.686996v70.539001l0,0z"/>
     <circle fill="#FFFFFF" r="29.547" cy="85.726" cx="129.74"/>
     <path fill="#FFFFFF" d="m137.095993,116.992996l-7.356003,7.402l-7.125,-7.479004c-0.037994,0 -0.052994,0 -0.075996,0.008003c-2.18,1.461998 -5.141998,2.916 -8.473,4.223l17.921005,30.232002h1.700989l-3.62999,-6.145996l14.745987,-25.125008c-2.472992,-1.326996 -5.038986,-2.465996 -7.707993,-3.114998z"/>
     <circle fill="#FFFFFF" r="4.06" cy="162.902" cx="129.74"/>
     <path fill="#FFFFFF" d="m192.136993,204.929993c-6.641998,-45.194 -16.602997,-65.410004 -40.231003,-80.832001l-15.873993,27.354996v5.908997h-1.337006c1.546005,1.378006 2.548004,3.365005 2.548004,5.601013c0,4.145996 -3.376007,7.511993 -7.512009,7.511993c-4.146996,0 -7.51899,-3.360992 -7.51899,-7.511993c0,-2.23201 1.001999,-4.223007 2.547997,-5.601013h-1.694v-5.057999l-16.910995,-28.542992c-8.268005,2.248001 -16.861,3.143997 -21.107002,0.903999c-6.080002,-3.229004 -10.196999,-10.931 -12.209,-22.899002c-1.052002,-6.250999 -6.968002,-10.440002 -13.223,-9.400002c-6.243,1.052002 -10.451,6.969002 -9.403,13.223999c3.265999,19.363007 11.377998,32.609001 24.103996,39.353996c5.855003,3.104004 12.429001,4.646011 19.562004,4.646011c1.825996,-0.009003 3.717995,-0.167999 5.619995,-0.373001v58.688004c0,3.520996 0.786003,6.967987 2.123001,9.905991l-0.060997,110.376999c0,7.489014 6.069,13.561005 13.556999,13.561005c7.488998,0 13.554001,-6.067993 13.554001,-13.561005l-0.007004,-94.250992l1.921005,0.009995v94.240997c0,7.489014 6.076004,13.561005 13.557999,13.561005c7.496002,0 13.556992,-6.067993 13.556992,-13.561005l-0.033997,-110.325989c1.462006,-3.040009 2.305008,-8.462006 2.305008,-12.143005v-37.322006c3.667999,9.160004 6.804993,21.74501 9.462997,39.867004c0.832001,5.692001 5.731003,9.807999 11.332001,9.807999c0.550995,0 1.127991,-0.037003 1.686005,-0.125c6.276001,-0.910995 10.602997,-6.743988 9.68399,-13.016998z"/>
     <polygon fill="#FFFFFF" points="134.008,153.419 133.176,153.419 133.057,153.499 125.095,153.499 125.095,155.328     134.008,155.328   "/>
     <path fill="#FFFFFF" d="m363.714996,85.732002c16.320007,0 29.545013,13.230003 29.545013,29.552002c0,16.314003 -13.225006,29.544991 -29.545013,29.544991c-16.321991,0 -29.545013,-13.228989 -29.545013,-29.544991c0.000031,-16.322006 13.223022,-29.552002 29.545013,-29.552002z"/>
     <path fill="#FFFFFF" d="m370.914001,146.473999c-0.020996,-0.007996 -0.036987,-0.007996 -0.074005,-0.007996l-7.125,7.481003l-7.359009,-7.409012c-2.673981,0.660004 -5.22699,1.78801 -7.700989,3.117004l14.75,25.110001l-3.631012,6.145996h1.701019l17.923981,-30.231995c-3.34198,-1.289001 -6.294983,-2.751007 -8.484985,-4.205002z"/>
     <path fill="#FFFFFF" d="m363.707001,188.395004c2.230011,0 4.057007,1.815002 4.057007,4.054993c0,2.234009 -1.824005,4.053009 -4.057007,4.053009s-4.05899,-1.815002 -4.05899,-4.053009c0.005005,-2.23999 1.826996,-4.054993 4.05899,-4.054993z"/>
     <path fill="#FFFFFF" d="m433.84201,121.914001c-6.269989,-1.052002 -12.167999,3.145996 -13.21701,9.395996c-2.020996,11.973007 -6.138977,19.667999 -12.212982,22.895996c-4.246002,2.248001 -12.838013,1.352005 -21.106995,-0.895996l-16.914001,28.535004v5.063004h-1.729004c1.548981,1.373993 2.552979,3.366989 2.552979,5.597992c0,4.146011 -3.36499,7.514999 -7.513977,7.514999c-4.141022,0 -7.506012,-3.36499 -7.506012,-7.514999c0,-2.228989 0.988007,-4.223999 2.545013,-5.597992h-1.335999v-5.91301l-15.875,-27.353989c-23.637024,15.414993 -33.594025,35.639999 -40.238007,80.828003c-0.910004,6.270996 3.410004,12.097 9.688995,13.015991c0.557007,0.09201 1.125,0.126999 1.687988,0.126999c5.576019,0 10.488007,-4.097 11.332001,-9.812988c2.64502,-18.114014 5.789001,-30.695007 9.464996,-39.856003v37.319992c0,3.682999 0.637024,9.238998 2.104004,12.281006c0,0.117004 -0.039001,110.187988 -0.039001,110.187988c0,7.487 6.076019,13.551025 13.551025,13.551025c7.487976,0 13.563995,-6.063019 13.563995,-13.551025v-94.23999l1.921997,-0.003998l-0.007996,94.244995c0,7.487 6.065979,13.550018 13.55899,13.550018c7.480011,0 13.549011,-6.063019 13.549011,-13.550018l-0.055023,-110.184982c1.338013,-2.934006 2.318024,-8.639008 2.318024,-12.159012v-56.625c1.89798,0.201004 3.798981,0.365005 5.644989,0.365005c7.122986,0 13.692993,-1.550003 19.561005,-4.660004c12.721008,-6.737 20.832001,-19.978989 24.100006,-39.353989c1.041992,-6.232025 -3.152008,-12.152023 -9.394012,-13.201019z"/>
     <polygon fill="#FFFFFF" points="368.356,183.052 360.381,183.052 360.274,182.964 359.44,182.964 359.44,184.878     368.356,184.878   "/>
     <g>
      <path fill="#FFFFFF" d="m246.796005,61.042c16.858994,0 30.513992,-13.666 30.513992,-30.521c0,-16.857 -13.65799,-30.521 -30.513992,-30.521c-16.852997,0 -30.516998,13.663 -30.518005,30.521c0,16.856998 13.664001,30.521 30.518005,30.521z"/>
      <circle fill="#FFFFFF" r="4.835" cy="116.384" cx="247.715"/>
      <path fill="#FFFFFF" d="m254.393997,62.813l-7.604996,7.651997l-7.356003,-7.731995c-0.042007,0 -0.057007,0 -0.080002,0.018997c-1.647995,0.392002 -5.070007,2.537003 -9.923004,4.554001l20.942001,35.354996h2.037003l-4.333008,-7.317993l16.851013,-28.702003c-5.132996,-1.812996 -9.158005,-3.493999 -10.533005,-3.827999z"/>
      <path fill="#FFFFFF" d="m321.041992,37.931c-6.390991,-1.068001 -12.549011,3.264 -13.656006,9.715c-1.895996,11.285999 -5.453003,18.618999 -10.55899,21.794003c-5.192993,3.431999 -14.035004,2.341995 -22.359009,0.154999l-19.246002,33.153v7.041h-1.593994c1.852005,1.640999 3.061005,4.014 3.061005,6.671997c0,4.947998 -4.027008,8.959 -8.956009,8.959c-4.94899,0 -8.96199,-4.021996 -8.96199,-8.959c0,-2.666 1.199997,-5.030998 3.041992,-6.671997h-2.043991v-6.027l-19.867004,-33.528c-6.042007,1.166 -13.231003,1.260002 -21.285995,-1.354004c-5.111008,-3.170998 -8.666,-10.511997 -10.565002,-21.789997c-1.085999,-6.456001 -7.208008,-10.797001 -13.656006,-9.714001c-6.455994,1.09 -10.800003,7.200001 -9.713989,13.654999c3.102997,18.543999 10.127991,30.951004 21.417999,37.984001c7.078995,4.389 14.863998,6.014 22.811996,6.014c2.209991,0 4.435989,-0.153999 6.649002,-0.386002v62.060005c0,3.979996 0.451996,7.212997 2.091995,10.472l0.007996,113.74501c0,7.747986 6.277008,14.013977 14.01001,14.013977c7.727997,0 14.00499,-6.280975 13.998001,-14.013977l-0.007004,-97.41301l1.98999,0.009003v97.404007c0,7.747986 6.272003,14.013977 14.001999,14.013977c7.738007,0 13.998016,-6.265991 13.998016,-14.013977l-0.106995,-113.80101c1.261993,-2.927002 2.491974,-6.932999 2.491974,-10.401001v-61.725006c2.826019,0.349998 5.652008,0.603996 8.463013,0.603996c7.942993,0 15.735992,-1.633995 22.829987,-6.019997c11.287018,-7.010002 18.307007,-19.437996 21.436005,-37.983002c1.086029,-6.458996 -3.267975,-12.572994 -9.722992,-13.662994z"/>
      <polygon fill="#FFFFFF" points="252.792,105.078 251.804,105.078 251.656,105.175 242.178,105.175 242.178,107.355      252.792,107.355    "/>
     </g>
    </g>
   </g>
   <g/>
   <g/>
   <g/>
   <g/>
   <g/>
   <g/>
   <g/>
   <g/>
   <g/>
   <g/>
   <g/>
   <g/>
   <g/>
   <g/>
   <g/>
  </svg>
 </defs>
</svg>